<svg width="232" height="49" viewBox="0 0 232 49" fill="none" xmlns="http://www.w3.org/2000/svg">
<path d="M56.0638 11.981C59.4727 11.981 62.0139 13.2057 63.6667 15.6338L64.3485 12.6144H72.2413L66.7045 38.1003H58.7909L59.4107 35.1442C57.386 37.5302 55.01 38.7341 52.2829 38.7341C49.4318 38.7341 47.1593 37.8045 45.4651 35.9682C43.771 34.1101 42.924 31.5344 42.924 28.1767C42.9214 25.6143 43.4055 23.0758 44.3495 20.702C45.3033 18.277 46.8549 16.1457 48.8534 14.5152C50.8987 12.8255 53.2954 11.981 56.0638 11.981ZM57.448 19.16C55.63 19.16 54.1216 19.8779 52.9234 21.2927C51.7252 22.7075 51.1462 24.46 51.1462 26.487C51.1462 28.0073 51.622 29.2319 52.5511 30.161C53.4801 31.0901 54.6378 31.5545 56.0217 31.5545C57.8397 31.5545 59.4099 30.7521 60.7322 29.1686L62.4469 21.4616C61.2287 19.9202 59.576 19.16 57.448 19.16Z" fill="white"/>
<path d="M116.387 38.7341C114.116 38.741 111.862 38.327 109.73 37.5114C107.705 36.7749 105.85 35.6042 104.286 34.0749L108.394 28.8459C109.264 29.7947 110.539 30.7012 112.219 31.5448C113.898 32.3885 115.517 32.8098 117.095 32.8098C117.864 32.8098 118.492 32.6411 118.977 32.2827C119.443 31.9243 119.685 31.4816 119.685 30.9546C119.685 30.2589 119.058 29.6266 117.783 29.0994C116.424 28.5419 115.032 28.0771 113.615 27.708C112.064 27.2909 110.633 26.4879 109.446 25.368C108.835 24.8223 108.347 24.1423 108.018 23.3769C107.689 22.6114 107.527 21.7796 107.544 20.9411C107.544 18.4745 108.475 16.3664 110.357 14.6166C112.239 12.8667 114.789 11.981 118.026 11.981C120.061 11.9763 122.081 12.3401 123.996 13.0562C125.816 13.7095 127.489 14.7425 128.913 16.092L125.169 21.1095C124.461 20.3083 123.429 19.5705 122.073 18.9169C120.809 18.287 119.427 17.9559 118.026 17.9471C117.176 17.9471 116.509 18.1158 116.023 18.4742C115.537 18.8326 115.294 19.2542 115.294 19.7391C115.294 20.2241 115.719 20.6673 116.569 21.0251C117.563 21.4567 118.584 21.8159 119.625 22.1002C120.837 22.4644 122.027 22.908 123.186 23.4283C124.358 23.9537 125.397 24.7547 126.221 25.7684C127.071 26.8014 127.496 28.0663 127.496 29.542C127.496 32.1773 126.484 34.3697 124.481 36.0985C122.458 37.8697 119.767 38.7341 116.387 38.7341Z" fill="white"/>
<path d="M93.9693 38.7341C89.9828 38.7341 86.7937 37.7144 84.4018 35.675C82.01 33.6285 80.8243 30.8017 80.8243 27.1717C80.8243 22.9943 82.1939 19.4146 84.9333 16.4327C87.6727 13.4578 91.1208 11.9739 95.2775 11.981C98.5076 11.981 101.206 12.9937 103.373 15.0402C105.54 17.0867 106.624 19.8927 106.624 23.4794C106.62 24.9716 106.449 26.4584 106.112 27.9097H88.6336V28.2261C88.6336 29.07 89.1651 29.9772 90.2487 30.9689C91.3323 31.9605 92.7631 32.4457 94.5622 32.4457C97.0155 32.4457 98.9371 31.9182 100.348 30.8633L102.76 36.2433C100.409 37.9107 97.4856 38.7341 93.9693 38.7341ZM89.4309 22.6565H99.6525C99.6934 22.6143 99.7138 22.4877 99.7138 22.2768C99.7138 21.2853 99.305 20.3779 98.5077 19.534C97.7104 18.6901 96.5247 18.2681 94.9505 18.2681C93.6154 18.2484 92.32 18.7368 91.3116 19.6401C90.2895 20.5469 89.6557 21.5595 89.4309 22.6565Z" fill="white"/>
<path d="M66.7167 48.3193C63.3632 48.3193 60.8944 47.6219 59.3103 46.2056L62.4992 40.3929C63.2192 41.2383 64.2272 41.6611 65.544 41.6611C67.3956 41.6611 68.6098 40.3506 69.206 37.7513L74.7196 12.4287H82.6404L77.1061 37.7506C75.6249 44.7894 72.1617 48.3123 66.7167 48.3193ZM79.6367 10.1663C78.4435 10.1663 77.4559 9.76463 76.6741 8.98195C76.3007 8.61752 76.0054 8.17748 75.807 7.68984C75.6087 7.2022 75.5116 6.67763 75.5221 6.14949C75.5221 4.52193 76.0569 3.23241 77.1474 2.2601C78.2378 1.28779 79.4104 0.80249 80.6653 0.80249C81.838 0.80249 82.805 1.18291 83.5661 1.96501C83.9372 2.32237 84.2314 2.75511 84.4297 3.23555C84.6281 3.71599 84.7264 4.23354 84.7182 4.75509C84.7182 6.38265 84.1833 7.67203 83.1135 8.66489C82.0643 9.68015 80.8916 10.1663 79.6367 10.1663Z" fill="white"/>
<path d="M157.813 4.86944C157.813 6.53519 157.269 7.8547 156.18 8.87148C155.091 9.88825 153.919 10.3857 152.62 10.3857C151.406 10.3857 150.401 9.97544 149.605 9.17436C149.225 8.80201 148.925 8.35189 148.723 7.85278C148.521 7.35366 148.422 6.81653 148.433 6.27569C148.433 4.61008 148.977 3.29043 150.087 2.29534C151.196 1.30025 152.39 0.80249 153.667 0.80249C154.861 0.80249 155.845 1.19182 156.62 1.99217C157.002 2.35916 157.306 2.80476 157.511 3.3003C157.717 3.79584 157.82 4.33035 157.813 4.86944Z" fill="url(#paint0_radial_332_2)"/>
<path d="M39.2595 37.9309H30.4091L35.4106 14.681L21.7027 37.9309H17.7921L14.1284 14.681L9.14743 37.9309H0.297028L7.87134 2.79242H19.8503L22.8347 22.2271L34.2175 2.79242H46.8139L39.2595 37.9309Z" fill="white"/>
<path d="M137.959 38.3444C135.427 38.3444 133.414 37.8436 131.919 36.8627C130.425 35.8818 129.657 34.3793 129.657 32.3968C129.669 31.7815 129.724 31.1677 129.823 30.5603L132.272 19.4374H128.121L129.678 12.4882H133.829L135.344 5.60168H143.314L141.799 12.4883H146.884L145.327 19.4375H140.242L138.374 27.9937C138.273 28.3681 138.217 28.7535 138.208 29.1415C138.208 30.5397 138.997 31.2284 140.595 31.2284C141.28 31.2284 141.799 31.0823 142.152 30.8109L142.256 37.2384C141.342 37.9897 139.91 38.3444 137.959 38.3444Z" fill="white"/>
<path d="M147.621 12.8064L142.187 37.9417H150.023L155.477 12.7857H147.621V12.8064Z" fill="white"/>
<path d="M166.305 38.7341C162.436 38.7341 159.346 37.6502 157.035 35.4824C154.718 33.3075 153.56 30.4991 153.56 27.015C153.56 22.792 154.98 19.2305 157.822 16.3308C160.656 13.4379 164.167 11.988 168.354 11.981C173.381 11.981 176.919 13.7054 178.968 17.1543L173.009 21.7574C171.974 20.026 170.402 19.1603 168.291 19.1603C166.367 19.1603 164.773 19.8782 163.512 21.293C162.25 22.7289 161.629 24.4604 161.629 26.5508C161.629 28.0921 162.147 29.3169 163.181 30.2249C164.215 31.1324 165.518 31.5758 167.07 31.5758C168.891 31.5758 170.463 30.8157 171.787 29.2954L176.091 34.6376C175.057 35.7567 173.691 36.728 171.994 37.5516C170.319 38.3329 168.415 38.7341 166.305 38.7341Z" fill="white"/>
<path d="M185.968 9.84198C185.968 5.06548 189.807 1.19336 194.543 1.19336H223.128C227.864 1.19336 231.703 5.06548 231.703 9.84198V38.6707C231.703 43.4472 227.864 47.3193 223.128 47.3193H194.543C189.807 47.3193 185.968 43.4472 185.968 38.6707V9.84198Z" fill="white"/>
<path d="M207.985 41.1051C207.867 41.0926 207.672 41.0729 207.551 41.0622C206.768 40.9924 205.66 40.7098 204.761 40.3521C204.209 40.132 203.902 39.9478 203.614 39.658C203.413 39.4576 203.316 39.3199 203.213 39.1017C203.122 38.9067 203.085 38.7493 203.03 38.345C202.971 37.9192 202.916 37.6742 202.826 37.4434C202.632 36.9425 202.314 36.5472 201.854 36.2342C201.643 36.0911 201.256 35.914 200.959 35.8209C200.797 35.7726 200.412 35.685 200.241 35.66C199.263 35.5186 198.544 35.2467 197.933 34.7834C197.748 34.6439 197.373 34.2736 197.213 34.0751C196.988 33.7906 196.752 33.4042 196.54 32.9678C195.173 30.1486 194.926 29.6298 194.555 28.7926C194.191 27.968 194.107 27.5762 194.191 27.0825C194.255 26.7122 194.37 26.4171 194.621 25.9913C194.69 25.8733 194.782 25.7051 194.825 25.6157C194.99 25.2669 195.113 24.7642 195.171 24.1793C195.191 23.9861 195.212 23.8143 195.217 23.8C195.223 23.7857 195.235 23.5317 195.244 23.2365C195.253 22.9414 195.269 22.5836 195.278 22.4405C195.313 21.877 195.331 20.6732 195.32 19.48C195.306 17.7878 195.326 17.4336 195.484 16.5553C195.633 15.7253 195.915 14.8469 196.281 14.076C196.638 13.3229 197.176 12.5089 197.78 11.8149C198.442 11.051 199.245 10.3462 200.217 9.67186C202.266 8.25332 204.376 7.37322 206.608 7.00472C207.122 6.92064 207.436 6.8795 207.777 6.85088C207.949 6.83836 208.208 6.81689 208.352 6.80437C208.56 6.78648 208.667 6.78648 208.885 6.80437C209.034 6.8151 209.299 6.83657 209.471 6.85088C209.961 6.89023 210.698 7.00293 211.261 7.12278C213.007 7.49307 214.552 8.12274 216.216 9.14058C217.355 9.83643 218.505 10.7523 219.205 11.5197C220.296 12.7129 220.976 13.8524 221.429 15.2405C221.606 15.7825 221.773 16.498 221.828 16.9542C221.839 17.04 221.855 17.151 221.864 17.201C221.915 17.4729 221.921 17.7377 221.919 19.6589C221.915 21.2724 221.921 21.6821 221.942 21.9307C221.956 22.0988 221.977 22.5174 221.988 22.8609C221.999 23.2061 222.015 23.5711 222.024 23.6748C222.08 24.2794 222.104 24.4655 222.157 24.7392C222.26 25.2561 222.372 25.5638 222.597 25.9412C222.858 26.3795 222.99 26.7087 223.054 27.0825C223.096 27.333 223.098 27.4564 223.063 27.6818C223.006 28.0342 222.928 28.2614 222.642 28.9071C222.397 29.4563 222.166 29.9518 221.796 30.7138C221.606 31.1074 221.333 31.6744 221.189 31.975C220.463 33.4919 220.329 33.7244 219.916 34.2128C219.409 34.8049 218.742 35.2324 217.969 35.456C217.738 35.5222 217.229 35.6313 217.06 35.651C216.866 35.6725 216.399 35.7852 216.163 35.8657C215.669 36.0374 215.302 36.2574 214.991 36.5723C214.565 36.9998 214.328 37.5042 214.245 38.1643C214.176 38.7135 214.14 38.8727 214.041 39.0891C213.86 39.4827 213.522 39.8315 213.08 40.0784C212.314 40.5059 210.709 40.9728 209.698 41.0622C209.587 41.0712 209.386 41.0908 209.254 41.1069C208.958 41.1391 208.285 41.1391 207.985 41.1051ZM207.569 37.3665C207.729 37.3182 207.921 37.2073 208.136 37.0373C208.468 36.7726 208.496 36.7529 208.562 36.7332C208.66 36.7064 208.734 36.7386 208.91 36.8799C209.448 37.3146 209.613 37.3951 209.977 37.3951C210.135 37.3951 210.203 37.3862 210.29 37.3576C210.652 37.2359 210.981 36.8692 211.085 36.4703C211.162 36.1859 211.123 35.7369 210.995 35.4167C210.849 35.0446 210.258 34.1699 209.056 32.5456C208.763 32.1503 208.69 32.0948 208.539 32.1521C208.461 32.1825 208.384 32.2773 207.823 33.0483C206.505 34.8621 206.235 35.2986 206.164 35.7333C206.138 35.9068 206.143 36.3647 206.173 36.4971C206.257 36.8549 206.596 37.2323 206.946 37.354C207.091 37.4058 207.416 37.4112 207.569 37.3665ZM203.589 31.975C203.951 31.9356 204.324 31.8819 204.539 31.839C205.251 31.6959 205.985 31.365 206.459 30.9732C206.715 30.7621 206.972 30.4151 207.061 30.1575C207.1 30.0448 207.106 30.0055 207.106 29.7246C207.106 29.4635 207.1 29.4008 207.07 29.315C206.969 29.0234 206.651 28.7139 206.244 28.5082C206.186 28.4796 205.706 28.2828 205.179 28.07C203.303 27.3169 201.82 26.6836 200.224 25.9556C199.506 25.6282 199.364 25.5906 198.856 25.5889C198.579 25.5889 198.492 25.596 198.371 25.6246C197.782 25.7677 197.364 26.2203 197.192 26.9054L197.134 27.1362V27.7891V28.442L197.192 28.7086C197.332 29.3454 197.565 29.8409 197.952 30.3239C198.357 30.8265 198.957 31.2362 199.629 31.4652C200.13 31.6369 200.662 31.7442 201.795 31.9034C201.927 31.9231 202.103 31.9499 202.186 31.9642C202.364 31.9929 203.346 32.0018 203.589 31.975ZM215.096 31.9571C215.309 31.9249 215.444 31.9052 215.888 31.8408C216.571 31.7424 217.237 31.5993 217.609 31.4723C218.166 31.2791 218.681 30.9625 219.067 30.5725C219.246 30.3901 219.493 30.0752 219.615 29.8695C219.805 29.5493 219.976 29.0914 220.065 28.6656C220.114 28.4259 220.114 28.417 220.114 27.7802V27.1362L220.065 26.9394C219.885 26.2293 219.488 25.782 218.901 25.6318C218.754 25.5942 218.694 25.5889 218.406 25.5889C218.045 25.5889 217.845 25.6193 217.598 25.7069C217.527 25.7337 217.152 25.8965 216.767 26.0718C215.167 26.7963 214.055 27.2686 212.265 27.9895C211.776 28.1844 211.316 28.3705 211.244 28.4009C210.695 28.6263 210.338 28.9286 210.18 29.2989C210.137 29.4026 210.134 29.4223 210.134 29.721C210.135 30.0144 210.137 30.0412 210.182 30.1557C210.368 30.6441 210.8 31.0662 211.457 31.4008C212.087 31.7227 212.643 31.8676 213.694 31.9803C213.728 31.9839 214.007 31.9893 214.314 31.9893C214.79 31.9929 214.906 31.9875 215.096 31.9571ZM205.326 21.9951C205.418 21.9629 205.582 21.886 206.608 21.3941C207.788 20.8288 208.404 20.5372 208.482 20.505C208.645 20.4388 208.651 20.4406 209.556 20.8753C212.005 22.0506 211.918 22.0094 212.018 22.0237C212.076 22.0309 212.098 22.0255 212.139 21.9897C212.211 21.9271 212.217 21.8305 212.16 21.5246C212.133 21.3833 212.092 21.1561 212.068 21.0184C212.043 20.8807 212.004 20.6642 211.981 20.5354C211.957 20.4084 211.922 20.2098 211.902 20.0972C211.883 19.9845 211.846 19.7823 211.823 19.6499C211.798 19.5176 211.753 19.2671 211.723 19.0954C211.693 18.9237 211.654 18.7054 211.636 18.6124C211.617 18.5194 211.592 18.3691 211.579 18.2797C211.558 18.1169 211.558 18.1151 211.604 18.0167C211.647 17.9327 211.707 17.8718 212.037 17.5821C212.249 17.396 212.519 17.1599 212.636 17.0561C212.755 16.9524 212.938 16.7914 213.046 16.6984C213.712 16.1224 214.163 15.7199 214.202 15.6698C214.227 15.6376 214.252 15.5821 214.257 15.5464C214.266 15.4927 214.259 15.4748 214.217 15.4319C214.172 15.3872 214.135 15.3746 213.961 15.3424C213.849 15.3228 213.685 15.2959 213.597 15.2852C213.51 15.2745 213.405 15.2584 213.366 15.2494C213.327 15.2405 213.224 15.2244 213.135 15.2154C213.048 15.2047 212.876 15.1797 212.753 15.16C212.535 15.1242 212.252 15.0831 211.625 14.99C210.631 14.8416 210.547 14.8183 210.434 14.6591C210.404 14.6144 210.116 14.0599 209.794 13.4248C208.842 11.5394 208.802 11.4607 208.757 11.4124C208.661 11.3086 208.528 11.3444 208.43 11.4983C208.398 11.5501 208.102 12.1315 207.773 12.7898C206.932 14.4713 206.866 14.5965 206.759 14.7056C206.637 14.8344 206.662 14.8273 205.685 14.9811C205.562 15.0008 205.431 15.0187 205.392 15.024C205.299 15.0366 204.779 15.1153 204.495 15.16C204.372 15.1797 204.202 15.2047 204.113 15.2154C204.026 15.2244 203.921 15.2405 203.882 15.2494C203.843 15.2584 203.74 15.2745 203.651 15.2852C203.564 15.2959 203.399 15.3228 203.287 15.3424C203.113 15.3746 203.076 15.3872 203.032 15.4319C202.989 15.4748 202.982 15.4927 202.991 15.5464C203.007 15.6394 203.062 15.702 203.333 15.9399C203.467 16.058 203.706 16.2655 203.863 16.4032C204.021 16.541 204.321 16.8021 204.529 16.9846C205.587 17.9058 205.653 17.9702 205.678 18.1026C205.688 18.1652 205.633 18.514 205.465 19.4263C205.431 19.6142 205.374 19.9308 205.338 20.1329C205.303 20.3351 205.26 20.5801 205.241 20.6785C205.223 20.7769 205.188 20.9701 205.163 21.1078C205.138 21.2456 205.102 21.4477 205.081 21.5568C205.024 21.8681 205.038 21.9701 205.141 22.0112C205.196 22.0345 205.214 22.0327 205.326 21.9951Z" fill="black"/>
<defs>
<radialGradient id="paint0_radial_332_2" cx="0" cy="0" r="1" gradientUnits="userSpaceOnUse" gradientTransform="translate(113.831 -12.4766) scale(4.6595 4.81405)">
<stop stop-color="white"/>
<stop offset="1" stop-color="white"/>
</radialGradient>
</defs>
</svg>
